<mxfile host="app.diagrams.net" agent="Mozilla/5.0 (iPad; CPU OS 18_2_0 like Mac OS X) AppleWebKit/605.1.15 (KHTML, like Gecko) CriOS/131.0.6778.134 Mobile/15E148 Safari/604.1" version="25.0.3">
  <diagram name="Page-1" id="CgNspkXvsqde1vR3tePX">
    <mxGraphModel dx="907" dy="634" grid="0" gridSize="10" guides="1" tooltips="1" connect="1" arrows="1" fold="1" page="0" pageScale="1" pageWidth="827" pageHeight="1169" math="0" shadow="0">
      <root>
        <mxCell id="0" />
        <mxCell id="1" parent="0" />
        <mxCell id="wrjsNRCDVgazvwfSSqCF-10" style="edgeStyle=none;curved=1;rounded=0;orthogonalLoop=1;jettySize=auto;html=1;fontSize=12;startSize=8;endSize=8;" edge="1" parent="1" source="wrjsNRCDVgazvwfSSqCF-2">
          <mxGeometry relative="1" as="geometry">
            <mxPoint x="153" y="223.8571428571429" as="targetPoint" />
          </mxGeometry>
        </mxCell>
        <mxCell id="wrjsNRCDVgazvwfSSqCF-2" value="Equip9 Assignment system" style="rounded=0;whiteSpace=wrap;html=1;" vertex="1" parent="1">
          <mxGeometry x="-64.5" y="84" width="435" height="256" as="geometry" />
        </mxCell>
        <mxCell id="wrjsNRCDVgazvwfSSqCF-3" value="&lt;div style=&quot;text-align: start;&quot;&gt;&lt;font size=&quot;3&quot;&gt;&lt;span style=&quot;-webkit-text-size-adjust: auto;&quot;&gt;Create GitHub repository&lt;/span&gt;&lt;/font&gt;&lt;/div&gt;" style="ellipse;whiteSpace=wrap;html=1;" vertex="1" parent="1">
          <mxGeometry x="-58" y="109" width="131" height="89" as="geometry" />
        </mxCell>
        <mxCell id="wrjsNRCDVgazvwfSSqCF-4" value="Organize reository structure" style="ellipse;whiteSpace=wrap;html=1;" vertex="1" parent="1">
          <mxGeometry x="243" y="104.5" width="122" height="98" as="geometry" />
        </mxCell>
        <mxCell id="wrjsNRCDVgazvwfSSqCF-9" style="edgeStyle=none;curved=1;rounded=0;orthogonalLoop=1;jettySize=auto;html=1;exitX=0.5;exitY=0;exitDx=0;exitDy=0;fontSize=12;startSize=8;endSize=8;" edge="1" parent="1" source="wrjsNRCDVgazvwfSSqCF-6" target="wrjsNRCDVgazvwfSSqCF-6">
          <mxGeometry relative="1" as="geometry">
            <mxPoint x="218" y="418.8571428571429" as="targetPoint" />
          </mxGeometry>
        </mxCell>
        <mxCell id="wrjsNRCDVgazvwfSSqCF-6" value="Set up develoment environment" style="ellipse;whiteSpace=wrap;html=1;" vertex="1" parent="1">
          <mxGeometry x="82" y="255" width="130" height="71" as="geometry" />
        </mxCell>
        <mxCell id="wrjsNRCDVgazvwfSSqCF-7" style="edgeStyle=none;curved=1;rounded=0;orthogonalLoop=1;jettySize=auto;html=1;exitX=1;exitY=0.5;exitDx=0;exitDy=0;entryX=0.412;entryY=0.457;entryDx=0;entryDy=0;entryPerimeter=0;fontSize=12;startSize=8;endSize=8;" edge="1" parent="1" source="wrjsNRCDVgazvwfSSqCF-3" target="wrjsNRCDVgazvwfSSqCF-2">
          <mxGeometry relative="1" as="geometry" />
        </mxCell>
        <mxCell id="wrjsNRCDVgazvwfSSqCF-8" style="edgeStyle=none;curved=1;rounded=0;orthogonalLoop=1;jettySize=auto;html=1;exitX=0;exitY=0.5;exitDx=0;exitDy=0;entryX=0.525;entryY=0.451;entryDx=0;entryDy=0;entryPerimeter=0;fontSize=12;startSize=8;endSize=8;" edge="1" parent="1" source="wrjsNRCDVgazvwfSSqCF-4" target="wrjsNRCDVgazvwfSSqCF-2">
          <mxGeometry relative="1" as="geometry" />
        </mxCell>
        <mxCell id="wrjsNRCDVgazvwfSSqCF-11" style="edgeStyle=none;curved=1;rounded=0;orthogonalLoop=1;jettySize=auto;html=1;entryX=0.5;entryY=1;entryDx=0;entryDy=0;fontSize=12;startSize=8;endSize=8;" edge="1" parent="1" source="wrjsNRCDVgazvwfSSqCF-6" target="wrjsNRCDVgazvwfSSqCF-6">
          <mxGeometry relative="1" as="geometry" />
        </mxCell>
        <mxCell id="wrjsNRCDVgazvwfSSqCF-14" style="edgeStyle=none;curved=1;rounded=0;orthogonalLoop=1;jettySize=auto;html=1;exitX=0.5;exitY=0;exitDx=0;exitDy=0;entryX=0.487;entryY=0.544;entryDx=0;entryDy=0;entryPerimeter=0;fontSize=12;startSize=8;endSize=8;" edge="1" parent="1" source="wrjsNRCDVgazvwfSSqCF-6" target="wrjsNRCDVgazvwfSSqCF-2">
          <mxGeometry relative="1" as="geometry" />
        </mxCell>
      </root>
    </mxGraphModel>
  </diagram>
</mxfile>
